<mxfile host="app.diagrams.net" modified="2022-01-05T05:35:19.360Z" agent="5.0 (Macintosh; Intel Mac OS X 10_15_7) AppleWebKit/537.36 (KHTML, like Gecko) Chrome/95.0.4638.69 Safari/537.36" etag="KcpxHq16pSgSxwxF3gc9" version="16.2.1" type="github">
  <diagram id="kuKqYAGhDJIydnRX94dR" name="Page-1">
    <mxGraphModel dx="1203" dy="674" grid="1" gridSize="10" guides="1" tooltips="1" connect="1" arrows="1" fold="1" page="1" pageScale="1" pageWidth="827" pageHeight="1169" background="none" math="0" shadow="1">
      <root>
        <mxCell id="0" />
        <mxCell id="1" parent="0" />
        <mxCell id="7BjbNXo0VfNo20I9zx44-69" style="edgeStyle=orthogonalEdgeStyle;rounded=0;orthogonalLoop=1;jettySize=auto;html=1;exitX=1;exitY=0.5;exitDx=0;exitDy=0;" parent="1" source="7BjbNXo0VfNo20I9zx44-14" target="7BjbNXo0VfNo20I9zx44-63" edge="1">
          <mxGeometry relative="1" as="geometry" />
        </mxCell>
        <mxCell id="7BjbNXo0VfNo20I9zx44-59" value="" style="group;" parent="1" vertex="1" connectable="0">
          <mxGeometry x="87.5" y="400" width="325" height="150" as="geometry" />
        </mxCell>
        <mxCell id="k8c9HEMRocZaYQNv0uMX-14" value="" style="group" parent="7BjbNXo0VfNo20I9zx44-59" vertex="1" connectable="0">
          <mxGeometry x="-30" y="-30" width="320" height="180" as="geometry" />
        </mxCell>
        <mxCell id="7BjbNXo0VfNo20I9zx44-19" value="GBDT粗排" style="rounded=1;whiteSpace=wrap;html=1;fillColor=#B5739D;" parent="k8c9HEMRocZaYQNv0uMX-14" vertex="1">
          <mxGeometry x="100" y="30" width="80" height="40" as="geometry" />
        </mxCell>
        <mxCell id="7BjbNXo0VfNo20I9zx44-20" value="Wide&amp;amp;Deep 精排(Larc)" style="rounded=1;whiteSpace=wrap;html=1;fillColor=#B5739D;" parent="k8c9HEMRocZaYQNv0uMX-14" vertex="1">
          <mxGeometry x="210" y="30" width="80" height="40" as="geometry" />
        </mxCell>
        <mxCell id="7BjbNXo0VfNo20I9zx44-47" style="edgeStyle=orthogonalEdgeStyle;rounded=0;orthogonalLoop=1;jettySize=auto;html=1;exitX=1;exitY=0.5;exitDx=0;exitDy=0;entryX=0;entryY=0.5;entryDx=0;entryDy=0;" parent="k8c9HEMRocZaYQNv0uMX-14" source="7BjbNXo0VfNo20I9zx44-19" target="7BjbNXo0VfNo20I9zx44-20" edge="1">
          <mxGeometry x="87.5" y="400" as="geometry" />
        </mxCell>
        <mxCell id="7BjbNXo0VfNo20I9zx44-21" value="相关性GBDT粗排" style="rounded=1;whiteSpace=wrap;html=1;fillColor=#7EA6E0;" parent="k8c9HEMRocZaYQNv0uMX-14" vertex="1">
          <mxGeometry x="100" y="100" width="80" height="40" as="geometry" />
        </mxCell>
        <mxCell id="7BjbNXo0VfNo20I9zx44-22" value="相关性Bert精排" style="rounded=1;whiteSpace=wrap;html=1;fillColor=#7EA6E0;" parent="k8c9HEMRocZaYQNv0uMX-14" vertex="1">
          <mxGeometry x="210" y="100" width="80" height="40" as="geometry" />
        </mxCell>
        <mxCell id="7BjbNXo0VfNo20I9zx44-48" style="edgeStyle=orthogonalEdgeStyle;rounded=0;orthogonalLoop=1;jettySize=auto;html=1;exitX=1;exitY=0.5;exitDx=0;exitDy=0;entryX=0;entryY=0.5;entryDx=0;entryDy=0;" parent="k8c9HEMRocZaYQNv0uMX-14" source="7BjbNXo0VfNo20I9zx44-21" target="7BjbNXo0VfNo20I9zx44-22" edge="1">
          <mxGeometry x="87.5" y="400" as="geometry" />
        </mxCell>
        <mxCell id="7BjbNXo0VfNo20I9zx44-57" style="edgeStyle=orthogonalEdgeStyle;rounded=0;orthogonalLoop=1;jettySize=auto;html=1;exitX=1;exitY=0.25;exitDx=0;exitDy=0;entryX=0;entryY=0.75;entryDx=0;entryDy=0;" parent="k8c9HEMRocZaYQNv0uMX-14" source="7BjbNXo0VfNo20I9zx44-56" target="7BjbNXo0VfNo20I9zx44-19" edge="1">
          <mxGeometry x="87.5" y="400" as="geometry" />
        </mxCell>
        <mxCell id="7BjbNXo0VfNo20I9zx44-58" style="edgeStyle=orthogonalEdgeStyle;rounded=0;orthogonalLoop=1;jettySize=auto;html=1;exitX=1;exitY=0.75;exitDx=0;exitDy=0;entryX=0;entryY=0.25;entryDx=0;entryDy=0;" parent="k8c9HEMRocZaYQNv0uMX-14" source="7BjbNXo0VfNo20I9zx44-56" target="7BjbNXo0VfNo20I9zx44-21" edge="1">
          <mxGeometry x="87.5" y="400" as="geometry" />
        </mxCell>
        <mxCell id="7BjbNXo0VfNo20I9zx44-56" value="&amp;nbsp;排序" style="rounded=0;whiteSpace=wrap;html=1;fillColor=#FFFFFF;" parent="k8c9HEMRocZaYQNv0uMX-14" vertex="1">
          <mxGeometry x="30" y="30" width="30" height="110" as="geometry" />
        </mxCell>
        <mxCell id="7BjbNXo0VfNo20I9zx44-60" value="" style="rounded=1;whiteSpace=wrap;html=1;fillColor=none;" parent="k8c9HEMRocZaYQNv0uMX-14" vertex="1">
          <mxGeometry width="320" height="170" as="geometry" />
        </mxCell>
        <mxCell id="7BjbNXo0VfNo20I9zx44-67" value="" style="group" parent="1" vertex="1" connectable="0">
          <mxGeometry x="87.5" y="40" width="325" height="80" as="geometry" />
        </mxCell>
        <mxCell id="7BjbNXo0VfNo20I9zx44-5" value="主搜索" style="rounded=1;whiteSpace=wrap;html=1;fillColor=none;" parent="7BjbNXo0VfNo20I9zx44-67" vertex="1">
          <mxGeometry x="20.967741935483872" y="17.142857142857142" width="73.38709677419355" height="45.71428571428571" as="geometry" />
        </mxCell>
        <mxCell id="7BjbNXo0VfNo20I9zx44-6" value="搜索发现" style="rounded=1;whiteSpace=wrap;html=1;fillColor=none;" parent="7BjbNXo0VfNo20I9zx44-67" vertex="1">
          <mxGeometry x="125.80645161290322" y="17.142857142857142" width="73.38709677419355" height="45.71428571428571" as="geometry" />
        </mxCell>
        <mxCell id="7BjbNXo0VfNo20I9zx44-7" value="相关搜索" style="rounded=1;whiteSpace=wrap;html=1;fillColor=none;" parent="7BjbNXo0VfNo20I9zx44-67" vertex="1">
          <mxGeometry x="230.64516129032256" y="17.142857142857142" width="73.38709677419355" height="45.71428571428571" as="geometry" />
        </mxCell>
        <mxCell id="7BjbNXo0VfNo20I9zx44-66" value="" style="rounded=1;whiteSpace=wrap;html=1;fillColor=none;" parent="7BjbNXo0VfNo20I9zx44-67" vertex="1">
          <mxGeometry width="325" height="80" as="geometry" />
        </mxCell>
        <mxCell id="7BjbNXo0VfNo20I9zx44-68" style="edgeStyle=orthogonalEdgeStyle;rounded=0;orthogonalLoop=1;jettySize=auto;html=1;" parent="1" source="7BjbNXo0VfNo20I9zx44-66" target="7BjbNXo0VfNo20I9zx44-14" edge="1">
          <mxGeometry relative="1" as="geometry" />
        </mxCell>
        <mxCell id="TYbjjWzv57JlkN2u3lhX-1" value="" style="group" parent="1" vertex="1" connectable="0">
          <mxGeometry x="460" y="120" width="340" height="200" as="geometry" />
        </mxCell>
        <mxCell id="7BjbNXo0VfNo20I9zx44-46" value="" style="group" parent="TYbjjWzv57JlkN2u3lhX-1" vertex="1" connectable="0">
          <mxGeometry x="20" y="5" width="300" height="190" as="geometry" />
        </mxCell>
        <mxCell id="7BjbNXo0VfNo20I9zx44-40" value="" style="group" parent="7BjbNXo0VfNo20I9zx44-46" vertex="1" connectable="0">
          <mxGeometry y="70" width="300" height="120" as="geometry" />
        </mxCell>
        <mxCell id="7BjbNXo0VfNo20I9zx44-16" value="文本召回" style="rounded=1;whiteSpace=wrap;html=1;fillColor=#B9E0A5;" parent="7BjbNXo0VfNo20I9zx44-40" vertex="1">
          <mxGeometry width="80" height="40" as="geometry" />
        </mxCell>
        <mxCell id="7BjbNXo0VfNo20I9zx44-17" value="个性化tag召回" style="rounded=1;whiteSpace=wrap;html=1;fillColor=#B9E0A5;" parent="7BjbNXo0VfNo20I9zx44-40" vertex="1">
          <mxGeometry x="110" width="80" height="40" as="geometry" />
        </mxCell>
        <mxCell id="7BjbNXo0VfNo20I9zx44-26" value="语义召回" style="rounded=1;whiteSpace=wrap;html=1;fillColor=#B9E0A5;" parent="7BjbNXo0VfNo20I9zx44-40" vertex="1">
          <mxGeometry x="220" width="80" height="40" as="geometry" />
        </mxCell>
        <mxCell id="7BjbNXo0VfNo20I9zx44-31" style="edgeStyle=orthogonalEdgeStyle;rounded=0;orthogonalLoop=1;jettySize=auto;html=1;exitX=0.5;exitY=0;exitDx=0;exitDy=0;exitPerimeter=0;entryX=0.5;entryY=1;entryDx=0;entryDy=0;" parent="7BjbNXo0VfNo20I9zx44-40" source="7BjbNXo0VfNo20I9zx44-27" target="7BjbNXo0VfNo20I9zx44-16" edge="1">
          <mxGeometry relative="1" as="geometry" />
        </mxCell>
        <mxCell id="7BjbNXo0VfNo20I9zx44-27" value="文本索引" style="shape=cylinder3;whiteSpace=wrap;html=1;boundedLbl=1;backgroundOutline=1;size=15;fillColor=#81B29A;" parent="7BjbNXo0VfNo20I9zx44-40" vertex="1">
          <mxGeometry y="70" width="80" height="50" as="geometry" />
        </mxCell>
        <mxCell id="7BjbNXo0VfNo20I9zx44-32" style="edgeStyle=orthogonalEdgeStyle;rounded=0;orthogonalLoop=1;jettySize=auto;html=1;exitX=0.5;exitY=0;exitDx=0;exitDy=0;exitPerimeter=0;entryX=0.5;entryY=1;entryDx=0;entryDy=0;" parent="7BjbNXo0VfNo20I9zx44-40" source="7BjbNXo0VfNo20I9zx44-28" target="7BjbNXo0VfNo20I9zx44-17" edge="1">
          <mxGeometry relative="1" as="geometry" />
        </mxCell>
        <mxCell id="7BjbNXo0VfNo20I9zx44-28" value="tag索引" style="shape=cylinder3;whiteSpace=wrap;html=1;boundedLbl=1;backgroundOutline=1;size=15;fillColor=#81B29A;" parent="7BjbNXo0VfNo20I9zx44-40" vertex="1">
          <mxGeometry x="110" y="70" width="80" height="50" as="geometry" />
        </mxCell>
        <mxCell id="7BjbNXo0VfNo20I9zx44-33" style="edgeStyle=orthogonalEdgeStyle;rounded=0;orthogonalLoop=1;jettySize=auto;html=1;exitX=0.5;exitY=0;exitDx=0;exitDy=0;exitPerimeter=0;" parent="7BjbNXo0VfNo20I9zx44-40" source="7BjbNXo0VfNo20I9zx44-29" target="7BjbNXo0VfNo20I9zx44-26" edge="1">
          <mxGeometry relative="1" as="geometry" />
        </mxCell>
        <mxCell id="7BjbNXo0VfNo20I9zx44-29" value="向量索引" style="shape=cylinder3;whiteSpace=wrap;html=1;boundedLbl=1;backgroundOutline=1;size=15;fillColor=#81B29A;" parent="7BjbNXo0VfNo20I9zx44-40" vertex="1">
          <mxGeometry x="220" y="70" width="80" height="50" as="geometry" />
        </mxCell>
        <mxCell id="7BjbNXo0VfNo20I9zx44-43" style="edgeStyle=orthogonalEdgeStyle;rounded=0;orthogonalLoop=1;jettySize=auto;html=1;exitX=0.25;exitY=1;exitDx=0;exitDy=0;" parent="7BjbNXo0VfNo20I9zx44-46" source="7BjbNXo0VfNo20I9zx44-42" target="7BjbNXo0VfNo20I9zx44-16" edge="1">
          <mxGeometry relative="1" as="geometry" />
        </mxCell>
        <mxCell id="7BjbNXo0VfNo20I9zx44-44" style="edgeStyle=orthogonalEdgeStyle;rounded=0;orthogonalLoop=1;jettySize=auto;html=1;exitX=0.5;exitY=1;exitDx=0;exitDy=0;" parent="7BjbNXo0VfNo20I9zx44-46" source="7BjbNXo0VfNo20I9zx44-42" target="7BjbNXo0VfNo20I9zx44-17" edge="1">
          <mxGeometry relative="1" as="geometry" />
        </mxCell>
        <mxCell id="7BjbNXo0VfNo20I9zx44-45" style="edgeStyle=orthogonalEdgeStyle;rounded=0;orthogonalLoop=1;jettySize=auto;html=1;exitX=0.75;exitY=1;exitDx=0;exitDy=0;entryX=0.5;entryY=0;entryDx=0;entryDy=0;" parent="7BjbNXo0VfNo20I9zx44-46" source="7BjbNXo0VfNo20I9zx44-42" target="7BjbNXo0VfNo20I9zx44-26" edge="1">
          <mxGeometry relative="1" as="geometry" />
        </mxCell>
        <mxCell id="7BjbNXo0VfNo20I9zx44-42" value="并发召回" style="rounded=0;whiteSpace=wrap;html=1;fillColor=#B9E0A5;" parent="7BjbNXo0VfNo20I9zx44-46" vertex="1">
          <mxGeometry x="80" width="140" height="30" as="geometry" />
        </mxCell>
        <mxCell id="7BjbNXo0VfNo20I9zx44-63" value="" style="rounded=1;whiteSpace=wrap;html=1;fillColor=none;" parent="TYbjjWzv57JlkN2u3lhX-1" vertex="1">
          <mxGeometry width="340" height="200" as="geometry" />
        </mxCell>
        <mxCell id="k8c9HEMRocZaYQNv0uMX-31" value="" style="shape=image;html=1;verticalLabelPosition=bottom;verticalAlign=top;imageAspect=0;image=img/clipart/Gear_128x128.png;rounded=1;strokeColor=#FF0000;fillColor=none;gradientColor=#ffffff;" parent="TYbjjWzv57JlkN2u3lhX-1" vertex="1">
          <mxGeometry x="280" y="130" width="27.5" height="30" as="geometry" />
        </mxCell>
        <mxCell id="k8c9HEMRocZaYQNv0uMX-17" value="" style="shape=image;html=1;verticalLabelPosition=bottom;verticalAlign=top;imageAspect=0;image=img/clipart/Gear_128x128.png;rounded=1;strokeColor=#FF0000;fillColor=none;gradientColor=#ffffff;" parent="TYbjjWzv57JlkN2u3lhX-1" vertex="1">
          <mxGeometry x="60" y="130" width="27.5" height="30" as="geometry" />
        </mxCell>
        <mxCell id="mdsXHMF0FIzdu2HfaXKq-1" value="" style="shape=image;html=1;verticalLabelPosition=bottom;verticalAlign=top;imageAspect=0;image=img/clipart/Gear_128x128.png;rounded=1;strokeColor=#FF0000;fillColor=none;gradientColor=#ffffff;" vertex="1" parent="TYbjjWzv57JlkN2u3lhX-1">
          <mxGeometry x="200" width="30" height="30" as="geometry" />
        </mxCell>
        <mxCell id="TYbjjWzv57JlkN2u3lhX-2" value="" style="group;rounded=1;" parent="1" vertex="1" connectable="0">
          <mxGeometry x="65" y="150" width="370" height="140" as="geometry" />
        </mxCell>
        <mxCell id="7BjbNXo0VfNo20I9zx44-14" value="" style="rounded=1;whiteSpace=wrap;html=1;fillColor=none;glass=0;" parent="TYbjjWzv57JlkN2u3lhX-2" vertex="1">
          <mxGeometry width="370" height="140" as="geometry" />
        </mxCell>
        <mxCell id="7BjbNXo0VfNo20I9zx44-39" value="" style="group;" parent="TYbjjWzv57JlkN2u3lhX-2" vertex="1" connectable="0">
          <mxGeometry x="45" y="10" width="280" height="120" as="geometry" />
        </mxCell>
        <mxCell id="7BjbNXo0VfNo20I9zx44-8" value="分词" style="rounded=1;whiteSpace=wrap;html=1;fillColor=#F4A261;" parent="7BjbNXo0VfNo20I9zx44-39" vertex="1">
          <mxGeometry x="200" width="80" height="40" as="geometry" />
        </mxCell>
        <mxCell id="7BjbNXo0VfNo20I9zx44-35" style="edgeStyle=orthogonalEdgeStyle;rounded=0;orthogonalLoop=1;jettySize=auto;html=1;" parent="7BjbNXo0VfNo20I9zx44-39" source="7BjbNXo0VfNo20I9zx44-9" target="7BjbNXo0VfNo20I9zx44-8" edge="1">
          <mxGeometry relative="1" as="geometry" />
        </mxCell>
        <mxCell id="7BjbNXo0VfNo20I9zx44-9" value="纠错" style="rounded=1;whiteSpace=wrap;html=1;fillColor=#F4A261;" parent="7BjbNXo0VfNo20I9zx44-39" vertex="1">
          <mxGeometry x="100" width="80" height="40" as="geometry" />
        </mxCell>
        <mxCell id="7BjbNXo0VfNo20I9zx44-10" value="意图" style="rounded=1;whiteSpace=wrap;html=1;fillColor=#F4A261;" parent="7BjbNXo0VfNo20I9zx44-39" vertex="1">
          <mxGeometry x="100" y="80" width="80" height="40" as="geometry" />
        </mxCell>
        <mxCell id="7BjbNXo0VfNo20I9zx44-11" value="改写" style="rounded=1;whiteSpace=wrap;html=1;fillColor=#F4A261;" parent="7BjbNXo0VfNo20I9zx44-39" vertex="1">
          <mxGeometry x="200" y="80" width="80" height="40" as="geometry" />
        </mxCell>
        <mxCell id="7BjbNXo0VfNo20I9zx44-37" style="edgeStyle=orthogonalEdgeStyle;rounded=0;orthogonalLoop=1;jettySize=auto;html=1;exitX=1;exitY=0.5;exitDx=0;exitDy=0;" parent="7BjbNXo0VfNo20I9zx44-39" source="7BjbNXo0VfNo20I9zx44-10" target="7BjbNXo0VfNo20I9zx44-11" edge="1">
          <mxGeometry relative="1" as="geometry" />
        </mxCell>
        <mxCell id="7BjbNXo0VfNo20I9zx44-34" style="edgeStyle=orthogonalEdgeStyle;rounded=0;orthogonalLoop=1;jettySize=auto;html=1;exitX=1;exitY=0.5;exitDx=0;exitDy=0;entryX=0;entryY=0.5;entryDx=0;entryDy=0;" parent="7BjbNXo0VfNo20I9zx44-39" source="7BjbNXo0VfNo20I9zx44-12" target="7BjbNXo0VfNo20I9zx44-9" edge="1">
          <mxGeometry relative="1" as="geometry" />
        </mxCell>
        <mxCell id="7BjbNXo0VfNo20I9zx44-12" value="预处理" style="rounded=1;whiteSpace=wrap;html=1;fillColor=#F4A261;" parent="7BjbNXo0VfNo20I9zx44-39" vertex="1">
          <mxGeometry width="80" height="40" as="geometry" />
        </mxCell>
        <mxCell id="7BjbNXo0VfNo20I9zx44-36" style="edgeStyle=orthogonalEdgeStyle;rounded=0;orthogonalLoop=1;jettySize=auto;html=1;exitX=1;exitY=0.5;exitDx=0;exitDy=0;" parent="7BjbNXo0VfNo20I9zx44-39" source="7BjbNXo0VfNo20I9zx44-13" target="7BjbNXo0VfNo20I9zx44-10" edge="1">
          <mxGeometry relative="1" as="geometry" />
        </mxCell>
        <mxCell id="7BjbNXo0VfNo20I9zx44-13" value="Term分析" style="rounded=1;whiteSpace=wrap;html=1;fillColor=#F4A261;" parent="7BjbNXo0VfNo20I9zx44-39" vertex="1">
          <mxGeometry y="80" width="80" height="40" as="geometry" />
        </mxCell>
        <mxCell id="7BjbNXo0VfNo20I9zx44-38" style="edgeStyle=orthogonalEdgeStyle;rounded=0;orthogonalLoop=1;jettySize=auto;html=1;exitX=0.5;exitY=1;exitDx=0;exitDy=0;entryX=0;entryY=0.5;entryDx=0;entryDy=0;" parent="7BjbNXo0VfNo20I9zx44-39" source="7BjbNXo0VfNo20I9zx44-8" target="7BjbNXo0VfNo20I9zx44-13" edge="1">
          <mxGeometry relative="1" as="geometry" />
        </mxCell>
        <mxCell id="7BjbNXo0VfNo20I9zx44-62" value="QP" style="text;html=1;strokeColor=none;fillColor=none;align=center;verticalAlign=middle;whiteSpace=wrap;rounded=0;" parent="TYbjjWzv57JlkN2u3lhX-2" vertex="1">
          <mxGeometry width="40" height="40" as="geometry" />
        </mxCell>
        <mxCell id="TYbjjWzv57JlkN2u3lhX-3" style="edgeStyle=orthogonalEdgeStyle;rounded=0;orthogonalLoop=1;jettySize=auto;html=1;exitX=0.5;exitY=1;exitDx=0;exitDy=0;" parent="1" source="7BjbNXo0VfNo20I9zx44-63" target="7BjbNXo0VfNo20I9zx44-60" edge="1">
          <mxGeometry relative="1" as="geometry" />
        </mxCell>
        <mxCell id="TYbjjWzv57JlkN2u3lhX-5" value="" style="group" parent="1" vertex="1" connectable="0">
          <mxGeometry x="460" y="360" width="340" height="180" as="geometry" />
        </mxCell>
        <mxCell id="7BjbNXo0VfNo20I9zx44-23" value="MMR" style="rounded=1;whiteSpace=wrap;html=1;fillColor=#6B705C;" parent="TYbjjWzv57JlkN2u3lhX-5" vertex="1">
          <mxGeometry x="200" y="30" width="80" height="40" as="geometry" />
        </mxCell>
        <mxCell id="7BjbNXo0VfNo20I9zx44-24" value="固定位置" style="rounded=1;whiteSpace=wrap;html=1;fillColor=#6B705C;" parent="TYbjjWzv57JlkN2u3lhX-5" vertex="1">
          <mxGeometry x="40" y="110" width="80" height="40" as="geometry" />
        </mxCell>
        <mxCell id="7BjbNXo0VfNo20I9zx44-52" style="edgeStyle=orthogonalEdgeStyle;rounded=0;orthogonalLoop=1;jettySize=auto;html=1;exitX=1;exitY=0.5;exitDx=0;exitDy=0;entryX=0;entryY=0.75;entryDx=0;entryDy=0;" parent="TYbjjWzv57JlkN2u3lhX-5" source="7BjbNXo0VfNo20I9zx44-23" target="7BjbNXo0VfNo20I9zx44-24" edge="1">
          <mxGeometry relative="1" as="geometry" />
        </mxCell>
        <mxCell id="7BjbNXo0VfNo20I9zx44-50" style="edgeStyle=orthogonalEdgeStyle;rounded=0;orthogonalLoop=1;jettySize=auto;html=1;exitX=1;exitY=0.5;exitDx=0;exitDy=0;entryX=0;entryY=0.5;entryDx=0;entryDy=0;" parent="TYbjjWzv57JlkN2u3lhX-5" source="7BjbNXo0VfNo20I9zx44-25" target="7BjbNXo0VfNo20I9zx44-23" edge="1">
          <mxGeometry relative="1" as="geometry" />
        </mxCell>
        <mxCell id="7BjbNXo0VfNo20I9zx44-25" value="分档" style="rounded=1;whiteSpace=wrap;html=1;fillColor=#6B705C;" parent="TYbjjWzv57JlkN2u3lhX-5" vertex="1">
          <mxGeometry x="60" y="30" width="80" height="40" as="geometry" />
        </mxCell>
        <mxCell id="7BjbNXo0VfNo20I9zx44-49" value="Defense策略" style="rounded=1;whiteSpace=wrap;html=1;fillColor=#6B705C;" parent="TYbjjWzv57JlkN2u3lhX-5" vertex="1">
          <mxGeometry x="140" y="110" width="80" height="40" as="geometry" />
        </mxCell>
        <mxCell id="7BjbNXo0VfNo20I9zx44-53" style="edgeStyle=orthogonalEdgeStyle;rounded=0;orthogonalLoop=1;jettySize=auto;html=1;exitX=1;exitY=0.5;exitDx=0;exitDy=0;entryX=0;entryY=0.5;entryDx=0;entryDy=0;" parent="TYbjjWzv57JlkN2u3lhX-5" source="7BjbNXo0VfNo20I9zx44-24" target="7BjbNXo0VfNo20I9zx44-49" edge="1">
          <mxGeometry relative="1" as="geometry" />
        </mxCell>
        <mxCell id="7BjbNXo0VfNo20I9zx44-54" value="etc" style="rounded=1;whiteSpace=wrap;html=1;fillColor=#6B705C;" parent="TYbjjWzv57JlkN2u3lhX-5" vertex="1">
          <mxGeometry x="240" y="110" width="80" height="40" as="geometry" />
        </mxCell>
        <mxCell id="7BjbNXo0VfNo20I9zx44-55" style="edgeStyle=orthogonalEdgeStyle;rounded=0;orthogonalLoop=1;jettySize=auto;html=1;exitX=1;exitY=0.5;exitDx=0;exitDy=0;entryX=0;entryY=0.5;entryDx=0;entryDy=0;" parent="TYbjjWzv57JlkN2u3lhX-5" source="7BjbNXo0VfNo20I9zx44-49" target="7BjbNXo0VfNo20I9zx44-54" edge="1">
          <mxGeometry relative="1" as="geometry" />
        </mxCell>
        <mxCell id="7BjbNXo0VfNo20I9zx44-64" value="" style="rounded=1;whiteSpace=wrap;html=1;fillColor=none;" parent="TYbjjWzv57JlkN2u3lhX-5" vertex="1">
          <mxGeometry width="340" height="180" as="geometry" />
        </mxCell>
        <mxCell id="7BjbNXo0VfNo20I9zx44-65" value="PostRank" style="text;html=1;strokeColor=none;fillColor=none;align=center;verticalAlign=middle;whiteSpace=wrap;rounded=0;" parent="TYbjjWzv57JlkN2u3lhX-5" vertex="1">
          <mxGeometry x="10" y="10" width="40" height="40" as="geometry" />
        </mxCell>
        <mxCell id="k8c9HEMRocZaYQNv0uMX-16" value="" style="shape=image;html=1;verticalLabelPosition=bottom;verticalAlign=top;imageAspect=0;image=img/clipart/Gear_128x128.png;rounded=1;strokeColor=#FF0000;fillColor=none;gradientColor=#ffffff;" parent="TYbjjWzv57JlkN2u3lhX-5" vertex="1">
          <mxGeometry x="120" y="140" width="30" height="30" as="geometry" />
        </mxCell>
        <mxCell id="TYbjjWzv57JlkN2u3lhX-20" value="Client" style="text;html=1;strokeColor=none;fillColor=none;align=center;verticalAlign=middle;whiteSpace=wrap;rounded=0;glass=0;" parent="1" vertex="1">
          <mxGeometry x="89" y="37" width="40" height="20" as="geometry" />
        </mxCell>
        <mxCell id="rDVhZpP06LZn0lWadmOm-1" style="edgeStyle=orthogonalEdgeStyle;rounded=0;orthogonalLoop=1;jettySize=auto;html=1;" parent="1" source="7BjbNXo0VfNo20I9zx44-60" edge="1">
          <mxGeometry relative="1" as="geometry">
            <mxPoint x="450" y="455" as="targetPoint" />
            <Array as="points">
              <mxPoint x="450" y="455" />
              <mxPoint x="450" y="455" />
            </Array>
          </mxGeometry>
        </mxCell>
      </root>
    </mxGraphModel>
  </diagram>
</mxfile>
